<svg xmlns="http://www.w3.org/2000/svg" viewBox="0 0 10 10"><defs><style>.cls-1{fill:#0444a0;}.cls-2{fill:#fff;}</style></defs><g id="Layer_2" data-name="Layer 2"><rect class="cls-1" width="10" height="10" rx="1.2"/></g><g id="Layer_1" data-name="Layer 1"><polygon class="cls-2" points="8.55 2.74 8.61 2.74 8.61 1.86 8.55 1.89 8.55 2.74"/><path class="cls-2" d="M9.2,3.36A.2.2,0,0,0,9,3.15a.21.21,0,0,0-.21.21v.58H8.9V3.53l0,.41H9v0h.06l0-.42,0,.42H9.2Z" transform="translate(-0.4 -0.46)"/><ellipse class="cls-2" cx="8.99" cy="3.13" rx="0.11" ry="0.05" transform="translate(-0.41 -0.44) rotate(-0.1)"/><polygon class="cls-2" points="8.58 1.79 8.66 1.76 4.99 0.84 1.27 1.84 4.98 2.97 8.25 1.9 5.27 1.74 8.58 1.79"/><path class="cls-2" d="M3.4,3v.86a2.71,2.71,0,0,0,2.06.79,2.3,2.3,0,0,0,1.87-.75V2.91L5.4,3.59Z" transform="translate(-0.4 -0.46)"/><path class="cls-2" d="M5.44,9.49a3.3,3.3,0,0,1-2.32-1,3.19,3.19,0,0,1,.48-5l.23.33A2.81,2.81,0,0,0,2.56,6.26a2.75,2.75,0,0,0,.85,2,2.84,2.84,0,0,0,2,.83h0A2.86,2.86,0,0,0,8.33,6.25,2.79,2.79,0,0,0,7,3.87l.22-.34A3.19,3.19,0,0,1,8.73,6.25,3.27,3.27,0,0,1,5.45,9.49Z" transform="translate(-0.4 -0.46)"/><rect class="cls-2" x="5.37" y="4.04" width="0.18" height="5.32" transform="translate(-0.42 -0.45) rotate(-0.1)"/><path class="cls-2" d="M5.15,9.34A3.13,3.13,0,0,1,3.34,7.06a3.84,3.84,0,0,1,1-3.18L4.51,4a3.61,3.61,0,0,0-1,3,3,3,0,0,0,1.7,2.14Z" transform="translate(-0.4 -0.46)"/><path class="cls-2" d="M5.79,9.34,5.7,9.16A3,3,0,0,0,7.39,7a3.58,3.58,0,0,0-.92-3l.15-.14a3.82,3.82,0,0,1,1,3.14A3.19,3.19,0,0,1,5.79,9.34Z" transform="translate(-0.4 -0.46)"/><path class="cls-2" d="M5.58,7.07A8.47,8.47,0,0,1,2.31,6.4l.09-.19a7.5,7.5,0,0,0,6.08,0l.09.18A6.53,6.53,0,0,1,5.58,7.07Z" transform="translate(-0.4 -0.46)"/></g></svg>